<?xml version="1.0" encoding="UTF-8" standalone="no"?>
<svg
   xmlns:dc="http://purl.org/dc/elements/1.1/"
   xmlns:cc="http://creativecommons.org/ns#"
   xmlns:rdf="http://www.w3.org/1999/02/22-rdf-syntax-ns#"
   xmlns:svg="http://www.w3.org/2000/svg"
   xmlns="http://www.w3.org/2000/svg"
   version="1.1"
   id="svg2"
   viewBox="0 0 212.59842 212.59841"
   height="60mm"
   width="60mm">
  <defs
     id="defs4" />
  <metadata
     id="metadata7">
    <rdf:RDF>
      <cc:Work
         rdf:about="">
        <dc:format>image/svg+xml</dc:format>
        <dc:type
           rdf:resource="http://purl.org/dc/dcmitype/StillImage" />
        <dc:title></dc:title>
      </cc:Work>
    </rdf:RDF>
  </metadata>
  <g
     transform="translate(-220.78464,-445.9899)"
     id="layer1">
    <g
       id="g4188"
       transform="matrix(0.42155965,0,0,0.42155965,373.76575,101.41815)">
      <path
         id="path4140"
         d="m -118.13732,354.15564 c 0,0 -17.15322,-4.12212 -11.50832,10.26226 5.64491,14.38438 18.28007,73.6963 4.63854,100.7569 -13.64154,27.06059 29.185883,54.30658 29.185883,54.30658 0,0 -8.998973,-30.44443 -7.963023,-53.52925 1.16791,-26.02541 11.991573,-46.03685 4.108393,-65.83743 -14.875653,-37.36392 -18.461473,-45.95906 -18.461473,-45.95906 z"
         style="fill:#1a1a1a;fill-rule:evenodd;stroke:#000000;stroke-width:7.07486725;stroke-linecap:butt;stroke-linejoin:miter;stroke-miterlimit:13.35000038;stroke-dasharray:none;stroke-opacity:1"
         transform="matrix(1.2136652,0,0,1.2136652,-87.830451,-105.90988)" />
      <path
         id="path4138"
         d="m -75.191337,238.81976 c 0,0 -71.972323,23.57063 -74.674753,58.76456 -1.48003,19.27469 -2.77919,88.43916 -15.53775,105.23874 -10.53749,13.87502 -30.60878,-23.61933 -49.88252,-16.15162 -36.57766,14.17218 -25.49154,95.98138 -25.49154,95.98138 0,0 4.19694,-9.9146 9.61184,-23.32336 5.2173,-12.91946 11.38617,-29.13391 25.31435,-40.19404 5.40447,-4.29159 12.7288,-2.04458 20.53967,-1.7949 17.79135,0.56871 38.1069,6.49752 44.00779,-11.4623 10.61074,-32.29459 17.02635,-83.33406 28.05962,-98.67399 29.574103,-41.11788 38.053293,-68.38447 38.053293,-68.38447 z"
         style="fill:#1a1a1a;fill-opacity:1;fill-rule:evenodd;stroke:#000000;stroke-width:7.07486725;stroke-linecap:butt;stroke-linejoin:miter;stroke-miterlimit:13.35000038;stroke-dasharray:none;stroke-opacity:1"
         transform="matrix(1.2136652,0,0,1.2136652,-87.830451,-105.90988)" />
      <circle
         style="fill:#1a1a1a;fill-rule:evenodd;stroke:#000000;stroke-width:8.5865202;stroke-linecap:butt;stroke-linejoin:miter;stroke-miterlimit:4;stroke-dasharray:none;stroke-opacity:1"
         id="path3336"
         cx="-245.7265"
         cy="203.64137"
         r="127.27922" />
      <path
         style="fill:#f4e3d7;fill-rule:evenodd;stroke:#000000;stroke-width:8.5865202;stroke-linecap:butt;stroke-linejoin:miter;stroke-miterlimit:4.19999981;stroke-dasharray:none;stroke-opacity:1"
         d="m -365.06455,163.92854 c 0,0 27.96459,-89.158744 120.57264,-87.560864 92.60805,1.59788 120.12836,90.756634 120.12836,90.756634 -82.23261,-71.56578 -153.64893,-78.239203 -240.701,-3.19577 z"
         id="path4142" />
    </g>
    <g
       transform="matrix(1.0204879,0,0,1.0204879,-314.55645,212.7455)"
       id="g4185">
      <circle
         style="fill:#f4e3d7;fill-opacity:1;stroke:#e9c6af;stroke-width:3.22018337;stroke-linecap:round;stroke-linejoin:miter;stroke-miterlimit:4;stroke-dasharray:none;stroke-opacity:1"
         id="circle4206"
         cx="639.26807"
         cy="262.81848"
         r="10.925623" />
      <path
         id="path4198"
         d="m 560.76878,250.87425 157.42738,52.81706"
         style="fill:#241f1c;fill-rule:evenodd;stroke:#241f1c;stroke-width:15.99999905;stroke-linecap:round;stroke-linejoin:miter;stroke-miterlimit:4;stroke-dasharray:none;stroke-opacity:1" />
      <path
         style="fill:none;fill-rule:evenodd;stroke:#241f1c;stroke-width:12;stroke-linecap:round;stroke-linejoin:miter;stroke-miterlimit:4;stroke-dasharray:none;stroke-opacity:1"
         d="m 615.79284,260.05654 69.86078,24.24302"
         id="path4202" />
      <circle
         r="14.011632"
         cy="284.99197"
         cx="687.19171"
         id="path4204"
         style="fill:#f4e3d7;fill-opacity:1;stroke:#e9c6af;stroke-width:3.99999976;stroke-linecap:round;stroke-linejoin:miter;stroke-miterlimit:4;stroke-dasharray:none;stroke-opacity:1" />
      <circle
         r="72.555702"
         cy="354.06854"
         cx="626.26819"
         id="path4194"
         style="fill:#483e37;fill-opacity:1;stroke:#241f1c;stroke-width:3.17431188;stroke-miterlimit:7.80000019;stroke-dasharray:none" />
      <path
         id="path4200"
         d="m 539.00713,243.27082 26.28935,9.24302"
         style="fill:none;fill-rule:evenodd;stroke:#241f1c;stroke-width:12;stroke-linecap:round;stroke-linejoin:miter;stroke-miterlimit:4;stroke-dasharray:none;stroke-opacity:1" />
      <circle
         r="32.65007"
         cy="354.06854"
         cx="626.26819"
         id="circle4210"
         style="fill:#483e37;fill-opacity:1;stroke:#241f1c;stroke-width:1.79999995;stroke-miterlimit:7.80000019;stroke-dasharray:none" />
    </g>
    <g
       transform="translate(340.92001,-29.774674)"
       id="g4306">
      <circle
         r="59.477188"
         cy="587.53149"
         cx="359.21384"
         id="path4228"
         style="fill:#ffbf2a;fill-opacity:1;stroke:#d68c29;stroke-width:4;stroke-linecap:round;stroke-linejoin:miter;stroke-miterlimit:4.19999981;stroke-dasharray:none;stroke-opacity:1" />
      <circle
         style="fill:#ffbf2a;fill-opacity:1;stroke:#d68c29;stroke-width:4.04000044;stroke-linecap:round;stroke-linejoin:miter;stroke-miterlimit:4.19999981;stroke-dasharray:none;stroke-opacity:1"
         id="circle4230"
         cx="364.47733"
         cy="577.40326"
         r="60.071964" />
      <g
         style="fill:#d68c29;fill-opacity:1"
         transform="matrix(0.209421,0,0,0.209421,337.24046,539.21826)"
         id="g4213">
        <g
           style="fill:#d68c29;fill-opacity:1"
           id="g4215">
          <path
             style="fill:#d68c29;fill-opacity:1"
             d="m 217.021,167.042 c 18.631,-9.483 30.288,-26.184 27.565,-54.007 C 240.919,75.012 208.06,62.262 166.58,58.631 l -0.008,-52.741 -32.139,0 -0.009,51.354 c -8.456,0 -17.076,0.166 -25.657,0.338 L 108.76,5.897 76.65,5.894 76.644,58.622 c -6.959,0.142 -13.793,0.277 -20.466,0.277 l 0,-0.156 -44.33,-0.018 0.006,34.282 c 0,0 23.734,-0.446 23.343,-0.013 13.013,0.009 17.262,7.559 18.484,14.076 l 0.01,60.083 0,84.397 c -0.573,4.09 -2.984,10.625 -12.083,10.637 0.414,0.364 -23.379,-0.004 -23.379,-0.004 l -6.375,38.335 41.817,0 c 7.792,0.009 15.448,0.13 22.959,0.19 l 0.028,53.338 32.102,0.009 -0.009,-52.779 c 8.832,0.18 17.357,0.258 25.684,0.247 l -0.009,52.532 32.138,0 0.018,-53.249 c 54.022,-3.1 91.842,-16.697 96.544,-67.385 3.79,-40.809 -15.434,-59.025 -46.105,-66.379 z M 109.535,95.321 c 18.126,0 75.132,-5.767 75.14,32.064 -0.008,36.269 -56.996,32.032 -75.14,32.032 l 0,-64.096 z m -0.014,167.126 0.014,-70.672 c 21.778,-0.006 90.085,-6.261 90.094,35.32 0.009,39.876 -68.316,35.336 -90.108,35.352 z"
             id="path4217" />
        </g>
      </g>
      <path
         id="path4232"
         d="m 386.40626,632.90768 -2.1966,8.19781"
         style="fill:none;fill-rule:evenodd;stroke:#d68c29;stroke-width:1px;stroke-linecap:butt;stroke-linejoin:miter;stroke-opacity:1" />
      <path
         style="fill:none;fill-rule:evenodd;stroke:#d68c29;stroke-width:1px;stroke-linecap:butt;stroke-linejoin:miter;stroke-opacity:1"
         d="m 382.3761,634.17839 -2.1966,8.19782"
         id="path4234" />
      <path
         id="path4236"
         d="m 378.19177,635.07693 -2.1966,8.19781"
         style="fill:none;fill-rule:evenodd;stroke:#d68c29;stroke-width:1px;stroke-linecap:butt;stroke-linejoin:miter;stroke-opacity:1" />
      <path
         style="fill:none;fill-rule:evenodd;stroke:#d68c29;stroke-width:1px;stroke-linecap:butt;stroke-linejoin:miter;stroke-opacity:1"
         d="m 395.36125,628.9188 -2.19661,8.19782"
         id="path4238" />
      <path
         id="path4240"
         d="m 391.98901,632.16332 -2.1966,8.19781"
         style="fill:none;fill-rule:evenodd;stroke:#d68c29;stroke-width:1px;stroke-linecap:butt;stroke-linejoin:miter;stroke-opacity:1" />
      <path
         style="fill:none;fill-rule:evenodd;stroke:#d68c29;stroke-width:1px;stroke-linecap:butt;stroke-linejoin:miter;stroke-opacity:1"
         d="m 389.38373,632.5355 -2.1966,8.19782"
         id="path4242" />
      <path
         style="fill:none;fill-rule:evenodd;stroke:#d68c29;stroke-width:1px;stroke-linecap:butt;stroke-linejoin:miter;stroke-opacity:1"
         d="m 373.19148,635.86645 -2.1966,8.19781"
         id="path4244" />
      <path
         style="fill:none;fill-rule:evenodd;stroke:#d68c29;stroke-width:1px;stroke-linecap:butt;stroke-linejoin:miter;stroke-opacity:1"
         d="m 303.50664,581.85204 -2.1966,8.19781"
         id="path4260" />
      <path
         id="path4262"
         d="m 310.6707,607.19925 -2.1966,8.19781"
         style="fill:none;fill-rule:evenodd;stroke:#d68c29;stroke-width:1px;stroke-linecap:butt;stroke-linejoin:miter;stroke-opacity:1" />
      <path
         style="fill:none;fill-rule:evenodd;stroke:#d68c29;stroke-width:1px;stroke-linecap:butt;stroke-linejoin:miter;stroke-opacity:1"
         d="m 307.90991,601.35786 -2.1966,8.19781"
         id="path4264" />
      <path
         id="path4266"
         d="m 303.93106,587.6325 -2.19661,8.19781"
         style="fill:none;fill-rule:evenodd;stroke:#d68c29;stroke-width:1px;stroke-linecap:butt;stroke-linejoin:miter;stroke-opacity:1" />
      <path
         style="fill:none;fill-rule:evenodd;stroke:#d68c29;stroke-width:1px;stroke-linecap:butt;stroke-linejoin:miter;stroke-opacity:1"
         d="m 304.9557,592.02001 -2.19661,8.19782"
         id="path4268" />
      <path
         id="path4270"
         d="m 306.48411,597.53344 -2.19661,8.19781"
         style="fill:none;fill-rule:evenodd;stroke:#d68c29;stroke-width:1px;stroke-linecap:butt;stroke-linejoin:miter;stroke-opacity:1" />
      <path
         id="path4272"
         d="m 312.21421,609.96323 -2.1966,8.19781"
         style="fill:none;fill-rule:evenodd;stroke:#d68c29;stroke-width:1px;stroke-linecap:butt;stroke-linejoin:miter;stroke-opacity:1" />
    </g>
  </g>
</svg>
