<?xml version="1.0" encoding="UTF-8" standalone="no"?>
<svg
   xmlns:dc="http://purl.org/dc/elements/1.1/"
   xmlns:cc="http://creativecommons.org/ns#"
   xmlns:rdf="http://www.w3.org/1999/02/22-rdf-syntax-ns#"
   xmlns:svg="http://www.w3.org/2000/svg"
   xmlns="http://www.w3.org/2000/svg"
   xmlns:sodipodi="http://sodipodi.sourceforge.net/DTD/sodipodi-0.dtd"
   xmlns:inkscape="http://www.inkscape.org/namespaces/inkscape"
   version="1.1"
   id="svg2"
   viewBox="0 0 212.59842 212.59841"
   height="60mm"
   width="60mm"
   sodipodi:docname="ninja.svg"
   inkscape:version="0.92pre2 r">
  <sodipodi:namedview
     pagecolor="#ffffff"
     bordercolor="#666666"
     borderopacity="1"
     objecttolerance="10"
     gridtolerance="10"
     guidetolerance="10"
     inkscape:pageopacity="0"
     inkscape:pageshadow="2"
     inkscape:window-width="1366"
     inkscape:window-height="707"
     id="namedview39"
     showgrid="false"
     inkscape:zoom="1.4717642"
     inkscape:cx="81.140297"
     inkscape:cy="137.54968"
     inkscape:window-x="0"
     inkscape:window-y="27"
     inkscape:window-maximized="1"
     inkscape:current-layer="svg2" />
  <defs
     id="defs4" />
  <metadata
     id="metadata7">
    <rdf:RDF>
      <cc:Work
         rdf:about="">
        <dc:format>image/svg+xml</dc:format>
        <dc:type
           rdf:resource="http://purl.org/dc/dcmitype/StillImage" />
        <dc:title />
      </cc:Work>
    </rdf:RDF>
  </metadata>
  <path
     id="path4140"
     d="m 107.19852,154.41903 c 0,0 -3.93732,-0.88139 -2.59507,2.38788 1.34226,3.26926 4.44352,16.78758 1.42063,23.02453 -3.0229,6.23695 6.86819,12.3146 6.86819,12.3146 0,0 -2.16662,-6.9299 -2.01218,-12.21264 0.17414,-5.95567 2.5778,-10.57054 0.70437,-15.07039 -3.53523,-8.49124 -4.38594,-10.44398 -4.38594,-10.44398 z"
     style="fill:#1a1a1a;fill-rule:evenodd;stroke:#000000;stroke-width:3.46353197;stroke-linecap:butt;stroke-linejoin:miter;stroke-miterlimit:13.35000038;stroke-dasharray:none;stroke-opacity:1"
     inkscape:connector-curvature="0"
     inkscape:transform-center-x="0.13427762"
     inkscape:transform-center-y="-2.0952493" />
  <path
     id="path4138"
     d="m 121.10774,148.93649 c 0,0 -17.71003,-3.43343 -22.350187,3.57812 -2.541269,3.84 -10.825324,18.08416 -15.427137,20.10227 -3.800702,1.66679 -3.63374,-8.46217 -8.510278,-9.14111 -9.254674,-1.28849 -16.426156,17.02232 -16.426156,17.02232 0,0 2.022219,-1.57718 4.702778,-3.74045 2.582746,-2.08434 5.745295,-4.74416 9.925532,-5.43225 1.62203,-0.26699 2.886036,1.04929 4.482727,2.00625 3.636891,2.17973 7.17807,5.7675 10.487075,2.71336 5.950121,-5.49184 13.198986,-15.37094 17.272606,-17.28516 10.91911,-5.13097 15.84304,-9.82335 15.84304,-9.82335 z"
     style="fill:#1a1a1a;fill-opacity:1;fill-rule:evenodd;stroke:#000000;stroke-width:3.46353197;stroke-linecap:butt;stroke-linejoin:miter;stroke-miterlimit:13.35000038;stroke-dasharray:none;stroke-opacity:1"
     inkscape:connector-curvature="0" />
  <circle
     style="fill:#f4e3d7;fill-opacity:1;stroke:#e9c6af;stroke-width:3.22018337;stroke-linecap:round;stroke-linejoin:miter;stroke-miterlimit:4;stroke-dasharray:none;stroke-opacity:1"
     id="circle4206"
     cx="418.48343"
     cy="-183.17142"
     r="10.925623" />
  <path
     inkscape:connector-curvature="0"
     id="path4198"
     d="m 339.98414,-195.11565 157.42738,52.81706"
     style="fill:#241f1c;fill-rule:evenodd;stroke:#241f1c;stroke-width:15.99999905;stroke-linecap:round;stroke-linejoin:miter;stroke-miterlimit:4;stroke-dasharray:none;stroke-opacity:1" />
  <path
     inkscape:connector-curvature="0"
     style="fill:none;fill-rule:evenodd;stroke:#241f1c;stroke-width:12;stroke-linecap:round;stroke-linejoin:miter;stroke-miterlimit:4;stroke-dasharray:none;stroke-opacity:1"
     d="m 395.0082,-185.93336 69.86078,24.24302"
     id="path4202" />
  <circle
     r="14.011632"
     cy="-160.99792"
     cx="466.40707"
     id="path4204"
     style="fill:#f4e3d7;fill-opacity:1;stroke:#e9c6af;stroke-width:3.99999976;stroke-linecap:round;stroke-linejoin:miter;stroke-miterlimit:4;stroke-dasharray:none;stroke-opacity:1" />
  <circle
     r="72.555702"
     cy="-91.921356"
     cx="405.48355"
     id="path4194"
     style="fill:#483e37;fill-opacity:1;stroke:#241f1c;stroke-width:3.17431188;stroke-miterlimit:7.80000019;stroke-dasharray:none" />
  <path
     inkscape:connector-curvature="0"
     id="path4200"
     d="m 318.22249,-202.71908 26.28935,9.24302"
     style="fill:none;fill-rule:evenodd;stroke:#241f1c;stroke-width:12;stroke-linecap:round;stroke-linejoin:miter;stroke-miterlimit:4;stroke-dasharray:none;stroke-opacity:1" />
  <circle
     style="fill:#483e37;fill-opacity:1;stroke:#241f1c;stroke-width:3.99999976;stroke-miterlimit:7.80000019;stroke-dasharray:none"
     id="circle4208"
     cx="405.48355"
     cy="-91.921356"
     r="72.555702" />
  <circle
     r="32.65007"
     cy="-91.921356"
     cx="405.48355"
     id="circle4210"
     style="fill:#483e37;fill-opacity:1;stroke:#241f1c;stroke-width:1.79999995;stroke-miterlimit:7.80000019;stroke-dasharray:none" />
  <g
     id="g4306"
     transform="translate(120.13537,-475.76457)">
    <circle
       style="fill:#ffbf2a;fill-opacity:1;stroke:#d68c29;stroke-width:4;stroke-linecap:round;stroke-linejoin:miter;stroke-miterlimit:4.19999981;stroke-dasharray:none;stroke-opacity:1"
       id="path4228"
       cx="359.21384"
       cy="587.53149"
       r="59.477188" />
    <circle
       r="60.071964"
       cy="577.40326"
       cx="364.47733"
       id="circle4230"
       style="fill:#ffbf2a;fill-opacity:1;stroke:#d68c29;stroke-width:4.04000044;stroke-linecap:round;stroke-linejoin:miter;stroke-miterlimit:4.19999981;stroke-dasharray:none;stroke-opacity:1" />
    <g
       id="g4213"
       transform="matrix(0.209421,0,0,0.209421,337.24046,539.21826)"
       style="fill:#d68c29;fill-opacity:1">
      <g
         id="g4215"
         style="fill:#d68c29;fill-opacity:1">
        <path
           inkscape:connector-curvature="0"
           id="path4217"
           d="m 217.021,167.042 c 18.631,-9.483 30.288,-26.184 27.565,-54.007 C 240.919,75.012 208.06,62.262 166.58,58.631 L 166.572,5.89 h -32.139 l -0.009,51.354 c -8.456,0 -17.076,0.166 -25.657,0.338 L 108.76,5.897 76.65,5.894 76.644,58.622 c -6.959,0.142 -13.793,0.277 -20.466,0.277 v -0.156 l -44.33,-0.018 0.006,34.282 c 0,0 23.734,-0.446 23.343,-0.013 13.013,0.009 17.262,7.559 18.484,14.076 l 0.01,60.083 v 84.397 c -0.573,4.09 -2.984,10.625 -12.083,10.637 0.414,0.364 -23.379,-0.004 -23.379,-0.004 l -6.375,38.335 h 41.817 c 7.792,0.009 15.448,0.13 22.959,0.19 l 0.028,53.338 32.102,0.009 -0.009,-52.779 c 8.832,0.18 17.357,0.258 25.684,0.247 l -0.009,52.532 h 32.138 l 0.018,-53.249 c 54.022,-3.1 91.842,-16.697 96.544,-67.385 3.79,-40.809 -15.434,-59.025 -46.105,-66.379 z M 109.535,95.321 c 18.126,0 75.132,-5.767 75.14,32.064 -0.008,36.269 -56.996,32.032 -75.14,32.032 z m -0.014,167.126 0.014,-70.672 c 21.778,-0.006 90.085,-6.261 90.094,35.32 0.009,39.876 -68.316,35.336 -90.108,35.352 z"
           style="fill:#d68c29;fill-opacity:1" />
      </g>
    </g>
    <path
       inkscape:connector-curvature="0"
       style="fill:none;fill-rule:evenodd;stroke:#d68c29;stroke-width:1px;stroke-linecap:butt;stroke-linejoin:miter;stroke-opacity:1"
       d="m 386.40626,632.90768 -2.1966,8.19781"
       id="path4232" />
    <path
       inkscape:connector-curvature="0"
       id="path4234"
       d="m 382.3761,634.17839 -2.1966,8.19782"
       style="fill:none;fill-rule:evenodd;stroke:#d68c29;stroke-width:1px;stroke-linecap:butt;stroke-linejoin:miter;stroke-opacity:1" />
    <path
       inkscape:connector-curvature="0"
       style="fill:none;fill-rule:evenodd;stroke:#d68c29;stroke-width:1px;stroke-linecap:butt;stroke-linejoin:miter;stroke-opacity:1"
       d="m 378.19177,635.07693 -2.1966,8.19781"
       id="path4236" />
    <path
       inkscape:connector-curvature="0"
       id="path4238"
       d="m 395.36125,628.9188 -2.19661,8.19782"
       style="fill:none;fill-rule:evenodd;stroke:#d68c29;stroke-width:1px;stroke-linecap:butt;stroke-linejoin:miter;stroke-opacity:1" />
    <path
       inkscape:connector-curvature="0"
       style="fill:none;fill-rule:evenodd;stroke:#d68c29;stroke-width:1px;stroke-linecap:butt;stroke-linejoin:miter;stroke-opacity:1"
       d="m 391.98901,632.16332 -2.1966,8.19781"
       id="path4240" />
    <path
       inkscape:connector-curvature="0"
       id="path4242"
       d="m 389.38373,632.5355 -2.1966,8.19782"
       style="fill:none;fill-rule:evenodd;stroke:#d68c29;stroke-width:1px;stroke-linecap:butt;stroke-linejoin:miter;stroke-opacity:1" />
    <path
       inkscape:connector-curvature="0"
       id="path4244"
       d="m 373.19148,635.86645 -2.1966,8.19781"
       style="fill:none;fill-rule:evenodd;stroke:#d68c29;stroke-width:1px;stroke-linecap:butt;stroke-linejoin:miter;stroke-opacity:1" />
    <path
       inkscape:connector-curvature="0"
       id="path4260"
       d="m 303.50664,581.85204 -2.1966,8.19781"
       style="fill:none;fill-rule:evenodd;stroke:#d68c29;stroke-width:1px;stroke-linecap:butt;stroke-linejoin:miter;stroke-opacity:1" />
    <path
       inkscape:connector-curvature="0"
       style="fill:none;fill-rule:evenodd;stroke:#d68c29;stroke-width:1px;stroke-linecap:butt;stroke-linejoin:miter;stroke-opacity:1"
       d="m 310.6707,607.19925 -2.1966,8.19781"
       id="path4262" />
    <path
       inkscape:connector-curvature="0"
       id="path4264"
       d="m 307.90991,601.35786 -2.1966,8.19781"
       style="fill:none;fill-rule:evenodd;stroke:#d68c29;stroke-width:1px;stroke-linecap:butt;stroke-linejoin:miter;stroke-opacity:1" />
    <path
       inkscape:connector-curvature="0"
       style="fill:none;fill-rule:evenodd;stroke:#d68c29;stroke-width:1px;stroke-linecap:butt;stroke-linejoin:miter;stroke-opacity:1"
       d="m 303.93106,587.6325 -2.19661,8.19781"
       id="path4266" />
    <path
       inkscape:connector-curvature="0"
       id="path4268"
       d="m 304.9557,592.02001 -2.19661,8.19782"
       style="fill:none;fill-rule:evenodd;stroke:#d68c29;stroke-width:1px;stroke-linecap:butt;stroke-linejoin:miter;stroke-opacity:1" />
    <path
       inkscape:connector-curvature="0"
       style="fill:none;fill-rule:evenodd;stroke:#d68c29;stroke-width:1px;stroke-linecap:butt;stroke-linejoin:miter;stroke-opacity:1"
       d="m 306.48411,597.53344 -2.19661,8.19781"
       id="path4270" />
    <path
       inkscape:connector-curvature="0"
       style="fill:none;fill-rule:evenodd;stroke:#d68c29;stroke-width:1px;stroke-linecap:butt;stroke-linejoin:miter;stroke-opacity:1"
       d="m 312.21421,609.96323 -2.1966,8.19781"
       id="path4272" />
  </g>
  <ellipse
     style="fill:#1a1a1a;fill-rule:evenodd;stroke:#000000;stroke-width:4.1585331;stroke-linecap:butt;stroke-linejoin:miter;stroke-miterlimit:4;stroke-dasharray:none;stroke-opacity:1"
     id="path3336"
     cx="110.12767"
     cy="88.465858"
     rx="60.36269"
     ry="62.949516" />
  <path
     style="fill:#f4e3d7;fill-rule:evenodd;stroke:#000000;stroke-width:4.98949957;stroke-linecap:butt;stroke-linejoin:miter;stroke-miterlimit:4.19999981;stroke-dasharray:none;stroke-opacity:1"
     d="m 57.84548,77.91559 c 0,0 12.97501,-32.492303 53.08775,-31.24667 40.11274,1.24563 52.24863,32.377994 52.24863,32.377994 C 121.76356,58.043907 89.558099,63.901689 57.84548,77.91559 Z"
     id="path4142"
     inkscape:connector-curvature="0"
     sodipodi:nodetypes="cscc" />
  <ellipse
     cy="121.08366"
     cx="140.25543"
     id="circle3741"
     style="fill:#1a1a1a;fill-rule:evenodd;stroke:#000000;stroke-width:2.25081611;stroke-linecap:butt;stroke-linejoin:miter;stroke-miterlimit:4;stroke-dasharray:none;stroke-opacity:1"
     rx="9.7837906"
     ry="5.0077953"
     transform="rotate(14.105172)" />
</svg>
